<svg xmlns="http://www.w3.org/2000/svg" width="512" height="512" viewBox="0 0 512 512">
  <!-- Background circle -->
  <circle cx="256" cy="256" r="240" fill="#0d9488"/>
  
  <!-- Document shape -->
  <rect x="140" y="100" width="200" height="280" rx="16" fill="white" opacity="0.95"/>
  
  <!-- Document fold -->
  <path d="M300 100 L340 140 L300 140 Z" fill="#e2e8f0"/>
  
  <!-- Rank bars -->
  <rect x="175" y="180" width="130" height="14" rx="7" fill="#0d9488" opacity="0.3"/>
  <rect x="175" y="180" width="110" height="14" rx="7" fill="#0d9488"/>
  
  <rect x="175" y="210" width="130" height="14" rx="7" fill="#0d9488" opacity="0.3"/>
  <rect x="175" y="210" width="85" height="14" rx="7" fill="#0d9488"/>
  
  <rect x="175" y="240" width="130" height="14" rx="7" fill="#0d9488" opacity="0.3"/>
  <rect x="175" y="240" width="65" height="14" rx="7" fill="#0d9488"/>
  
  <rect x="175" y="270" width="130" height="14" rx="7" fill="#0d9488" opacity="0.3"/>
  <rect x="175" y="270" width="45" height="14" rx="7" fill="#0d9488"/>
  
  <!-- Rank numbers -->
  <text x="175" y="178" font-family="Arial, sans-serif" font-size="11" fill="#0d9488" font-weight="bold">#1</text>
  <text x="175" y="208" font-family="Arial, sans-serif" font-size="11" fill="#0d9488" font-weight="bold">#2</text>
  <text x="175" y="238" font-family="Arial, sans-serif" font-size="11" fill="#0d9488" font-weight="bold">#3</text>
  <text x="175" y="268" font-family="Arial, sans-serif" font-size="11" fill="#0d9488" font-weight="bold">#4</text>
  
  <!-- Checkmark badge -->
  <circle cx="340" cy="340" r="50" fill="#059669"/>
  <path d="M315 340 L332 357 L368 320" stroke="white" stroke-width="10" stroke-linecap="round" stroke-linejoin="round" fill="none"/>
</svg>
